<svg fill="#FF6B00" xmlns:x="http://ns.adobe.com/Extensibility/1.0/" xmlns:i="http://ns.adobe.com/AdobeIllustrator/10.0/" xmlns:graph="http://ns.adobe.com/Graphs/1.0/" xmlns="http://www.w3.org/2000/svg" xmlns:xlink="http://www.w3.org/1999/xlink" version="1.1" x="0px" y="0px" viewBox="0 0 64 64" enable-background="new 0 0 64 64" xml:space="preserve"><metadata><sfw xmlns="http://ns.adobe.com/SaveForWeb/1.0/"><slices></slices><sliceSourceBounds height="16384" width="16389" x="-8165" y="-8160" bottomLeftOrigin="true"></sliceSourceBounds></sfw></metadata><g><path d="M53.943,13.308c-2.671-2.67-6.223-4.141-9.999-4.141s-7.327,1.471-9.997,4.141L32,15.255l-1.948-1.948   c-2.67-2.67-6.221-4.141-9.998-4.141c-3.777,0-7.327,1.471-9.998,4.141c-2.671,2.671-4.142,6.222-4.142,9.999   c0,3.776,1.471,7.327,4.142,9.997L31.293,54.54c0.188,0.188,0.442,0.293,0.707,0.293s0.52-0.105,0.707-0.293l21.236-21.237   C59.456,27.791,59.456,18.821,53.943,13.308z M52.529,31.889L32,52.419l-20.529-20.53c-2.293-2.292-3.556-5.34-3.556-8.583   c0-3.243,1.263-6.292,3.556-8.584c2.292-2.292,5.341-3.555,8.583-3.555c3.242,0,6.291,1.263,8.583,3.555l2.655,2.655   c0.375,0.375,1.039,0.375,1.414,0l2.654-2.655c2.293-2.292,5.341-3.555,8.583-3.555s6.291,1.263,8.585,3.555   C57.262,19.455,57.262,27.156,52.529,31.889z"></path></g></svg>