<svg fill="#FF6B00" xmlns="http://www.w3.org/2000/svg" xmlns:xlink="http://www.w3.org/1999/xlink" version="1.1" x="0px" y="0px" viewBox="0 0 100 100" style="enable-background:new 0 0 100 100;" xml:space="preserve"><style type="text/css">
	.st0{fill:#FF6B00;}
	.st1{fill:none;stroke:#FF6B00;stroke-linecap:round;stroke-linejoin:round;}
	.st2{stroke:#FF6B00;stroke-width:2.3664;stroke-miterlimit:10;}
	.st3{fill:none;stroke:#FF6B00;stroke-width:1.1131;stroke-miterlimit:10;}
	.st4{fill:none;stroke:#FF6B00;stroke-width:3;stroke-miterlimit:10;}
	.st5{stroke:#FF6B00;stroke-width:1.2473;stroke-miterlimit:10;}
	.st6{fill:none;stroke:#FF6B00;stroke-miterlimit:10;}
	.st7{stroke:#FF6B00;stroke-width:0.6036;stroke-miterlimit:10;}
	.st8{fill:none;stroke:#FF6B00;stroke-width:0.6036;stroke-miterlimit:10;}
	.st9{fill:none;stroke:#FF6B00;stroke-width:0.5;stroke-miterlimit:10;}
	.st10{display:none;}
	.st11{display:inline;fill:#FF6B00;stroke:#FF6B00;stroke-width:3;stroke-miterlimit:10;}
	.st12{fill:none;stroke:#FF6B00;stroke-width:2;stroke-miterlimit:10;}
	.st13{fill:none;}
	.st14{fill:#FF6B00;stroke:#FF6B00;stroke-width:3;stroke-miterlimit:10;}
	.st15{fill:#FF6B00;stroke:#FF6B00;stroke-width:3;stroke-miterlimit:10;}
	.st16{stroke:#FF6B00;stroke-width:3;stroke-miterlimit:10;}
	.st17{stroke:#FF6B00;stroke-width:3;stroke-miterlimit:10;}
	.st18{stroke:#FF6B00;stroke-width:2;stroke-miterlimit:10;}
	.st19{fill:none;stroke:#FF6B00;stroke-width:3;stroke-linecap:round;stroke-linejoin:round;stroke-miterlimit:10;}
	.st20{fill:none;stroke:#FF6B00;stroke-width:5;stroke-linecap:round;stroke-miterlimit:10;}
	.st21{stroke:#FF6B00;stroke-width:5;stroke-linecap:round;stroke-miterlimit:10;}
</style><g class="st10"><rect x="-641" y="-189" class="st11" width="1292" height="328"></rect></g><g><path class="st13" d="M26.6,33.2l41.7,41.7c2.1-2.3,3.8-5,5.1-8L34.6,28.1C31.6,29.3,29,31.1,26.6,33.2z"></path><path class="st13" d="M52.4,84.7c2.5,0,4.9-0.3,7.2-0.9l-19.2-1.7C44.1,83.7,48.1,84.7,52.4,84.7z"></path><polygon class="st13" points="45.3,61.4 54.7,62.2 49.6,57.1  "></polygon><path class="st13" d="M52,35.1c-3.1,3.4-5.5,7.5-6.7,12l9.4-9.4L52,35.1z"></path><path class="st13" d="M34.9,72.3l-4.8,4.8c0.7,0.6,1.3,1.2,2,1.7l31,2.7c2.4-1.2,4.7-2.8,6.7-4.7l-1.6-1.6L34.9,72.3z"></path><path class="st13" d="M52.9,39.8L40.6,52.1c-0.1,1-0.2,2-0.2,3c0,3.2,0.5,6.2,1.4,9l17.7-17.7L52.9,39.8z"></path><path class="st13" d="M63.8,72.2l-6.9-6.9l0,0l-15-1.3l-0.5,0.5c-1.8,1.8-3.5,3.5-5.3,5.3L63.8,72.2z"></path><path class="st13" d="M47.9,69.9c2.5-2.5,4.9-4.9,7.4-7.4l7.4-7.4L56,48.5L37.4,67.1c1.3,3,3.1,5.7,5.3,8.1L47.9,69.9z"></path><path class="st13" d="M39.7,25.6c-3.1,0-6,0.5-8.8,1.4l37,37c0.9-2.8,1.4-5.8,1.4-8.8c0-1.1-0.1-2.2-0.2-3.3l-26-26   C41.9,25.7,40.8,25.6,39.7,25.6z"></path><path class="st13" d="M52.5,34.3c-0.1-0.1-0.2-0.2-0.2-0.3c-3.4-3.3-7.6-5.8-12.3-7.2l20,20c-1.4-4.7-3.9-8.9-7.2-12.3   C52.7,34.5,52.6,34.4,52.5,34.3z"></path><path d="M88.9,10.6c-3.4,0-6.1,2.7-6.1,6.1c0,0.8,0.2,1.6,0.5,2.3L71.6,30.7c-5.7-4.9-13.1-7.9-21.1-7.9c-8.3,0-15.9,3.2-21.7,8.3   c0-0.1-0.1-0.1-0.1-0.2l-12-12c0.3-0.7,0.5-1.5,0.5-2.3c0-3.4-2.7-6.1-6.1-6.1S5,13.4,5,16.7s2.7,6.1,6.1,6.1   c0.8,0,1.6-0.2,2.3-0.5l12,12c0.1,0.1,0.2,0.1,0.2,0.2c-4.7,5.6-7.5,12.8-7.5,20.6c0,8.3,3.2,15.9,8.3,21.7c-0.1,0-0.1,0.1-0.2,0.1   l-8.4,8.4c-0.9,0.9-0.9,2.4,0,3.3c0.5,0.5,1.1,0.7,1.7,0.7s1.2-0.2,1.7-0.7l8.4-8.4c0.1-0.1,0.1-0.2,0.2-0.2   c5.6,4.7,12.8,7.5,20.7,7.5c7.8,0,15-2.8,20.6-7.5c0.1,0.1,0.1,0.2,0.2,0.2l8.4,8.4c0.5,0.5,1.1,0.7,1.7,0.7s1.2-0.2,1.7-0.7   c0.9-0.9,0.9-2.4,0-3.3l-8.4-8.4c-0.1-0.1-0.1-0.1-0.2-0.1c5.2-5.7,8.3-13.3,8.3-21.7c0-8.1-3-15.5-7.9-21.1l11.7-11.7   c0.7,0.3,1.5,0.5,2.3,0.5c3.4,0,6.1-2.7,6.1-6.1S92.3,10.6,88.9,10.6z M28.8,35.1l2.7,2.7L22,47.2C23.3,42.6,25.7,38.5,28.8,35.1z    M20.9,55.1c0-1,0.1-2,0.2-3l12.3-12.3l6.7,6.7L22.4,64.2C21.4,61.3,20.9,58.3,20.9,55.1z M28.7,75.1c-2.2-2.4-4-5.1-5.3-8.1   l18.6-18.6l6.7,6.7l-7.4,7.4c-2.5,2.5-4.9,4.9-7.4,7.4L28.7,75.1z M46.5,61.4l4.3-4.3l5.1,5.1L46.5,61.4z M58.9,65.3L58.9,65.3   l6.9,6.9l-27.7-2.4c1.8-1.8,3.5-3.5,5.3-5.3l0.5-0.5L58.9,65.3z M50.5,84.7c-4.3,0-8.4-0.9-12-2.6l19.2,1.7   C55.4,84.4,53,84.7,50.5,84.7z M63.8,81.5l-31-2.7c-0.7-0.5-1.4-1.1-2-1.7l4.8-4.8l33.4,2.9l1.6,1.6C68.5,78.7,66.2,80.3,63.8,81.5   z M72.4,74.8L30.8,33.2c2.3-2.1,5-3.8,8-5.1l38.8,38.8C76.3,69.8,74.6,72.5,72.4,74.8z M80,55.1c0,3.1-0.5,6-1.4,8.8l-37-37   c2.8-0.9,5.8-1.4,8.8-1.4c1.1,0,2.2,0.1,3.3,0.2l26,26C79.9,52.9,80,54,80,55.1z M78.8,46.8l-20-20c4.7,1.4,8.9,3.9,12.3,7.2   c0.1,0.1,0.1,0.2,0.2,0.3c0.1,0.1,0.2,0.2,0.3,0.2C74.9,37.9,77.4,42.1,78.8,46.8z"></path></g></svg>