<svg fill="#FF6B00" xmlns="http://www.w3.org/2000/svg" xmlns:xlink="http://www.w3.org/1999/xlink" version="1.2" baseProfile="tiny" x="0px" y="0px" viewBox="0 0 100 100" xml:space="preserve"><path d="M76.769,19.258C77.749,19.729,78.842,20,80,20c4.136,0,7.5-3.364,7.5-7.5S84.136,5,80,5c-4.736,0-8.087,1.444-9.959,4.292  C66.824,14.187,69.068,21.225,72.74,30H27.26c3.672-8.775,5.916-15.813,2.699-20.708C28.087,6.444,24.736,5,20,5  c-4.136,0-7.5,3.364-7.5,7.5S15.864,20,20,20c1.158,0,2.251-0.271,3.231-0.742c-0.952,3.227-2.594,7.187-4.12,10.742H10v5h6.958  C13.459,43.2,10,52.113,10,60c0,13.532,10.859,35,40,35s40-21.468,40-35c0-7.887-3.459-16.8-6.958-25H90v-5h-9.11  C79.363,26.445,77.721,22.486,76.769,19.258z M80,10c1.379,0,2.5,1.122,2.5,2.5S81.379,15,80,15s-2.5-1.122-2.5-2.5S78.621,10,80,10  z M20,15c-1.379,0-2.5-1.122-2.5-2.5S18.621,10,20,10s2.5,1.122,2.5,2.5S21.379,15,20,15z M32.5,83.538  c-10.68-5.635-15-16.106-15-23.538c0-7.308,4.031-16.69,7.623-25H32.5V83.538z M42.5,86.87c-1.773-0.308-3.438-0.722-5-1.23V35h5  V86.87z M52.5,87.429C51.684,87.472,50.854,87.5,50,87.5s-1.684-0.028-2.5-0.071V35h5V87.429z M62.5,85.64  c-1.562,0.508-3.227,0.923-5,1.23V35h5V85.64z M67.5,83.538V35h7.377c3.592,8.31,7.623,17.692,7.623,25  C82.5,67.432,78.18,77.903,67.5,83.538z"></path></svg>