<?xml version="1.0" encoding="utf-8"?>
<!-- Generator: Adobe Illustrator 22.0.1, SVG Export Plug-In . SVG Version: 6.00 Build 0)  -->
<svg version="1.1" id="Layer_1" xmlns="http://www.w3.org/2000/svg" xmlns:xlink="http://www.w3.org/1999/xlink" x="0px" y="0px"
	 viewBox="0 0 70.2 83.2" style="enable-background:new 0 0 70.2 83.2;" xml:space="preserve">
<style type="text/css">
	.st0{fill:#F15A28;}
</style>
<g>
	<path class="st0" d="M27.1,33.2c1.6,0,2.9-1.3,2.9-2.9s-1.3-2.9-2.9-2.9s-2.9,1.3-2.9,2.9C24.2,31.8,25.5,33.2,27.1,33.2z
		 M27.1,28.8c0.8,0,1.5,0.7,1.5,1.5s-0.7,1.5-1.5,1.5s-1.5-0.7-1.5-1.5C25.6,29.4,26.3,28.8,27.1,28.8z"/>
	<path class="st0" d="M43.4,33.2c1.6,0,2.9-1.3,2.9-2.9s-1.3-2.9-2.9-2.9c-1.6,0-2.9,1.3-2.9,2.9C40.5,31.8,41.8,33.2,43.4,33.2z
		 M43.4,28.8c0.8,0,1.5,0.7,1.5,1.5s-0.7,1.5-1.5,1.5S42,31,42,30.2C42,29.4,42.6,28.8,43.4,28.8z"/>
	<circle class="st0" cx="35.4" cy="40.5" r="0.7"/>
	<circle class="st0" cx="31.1" cy="40.5" r="0.7"/>
	<circle class="st0" cx="39.8" cy="40.5" r="0.7"/>
	<circle class="st0" cx="37.6" cy="44.2" r="0.7"/>
	<circle class="st0" cx="42" cy="44.2" r="0.7"/>
	<circle class="st0" cx="33.2" cy="44.2" r="0.7"/>
	<circle class="st0" cx="28.9" cy="44.2" r="0.7"/>
	<circle class="st0" cx="35.4" cy="47.8" r="0.7"/>
	<circle class="st0" cx="31.1" cy="47.8" r="0.7"/>
	<circle class="st0" cx="39.8" cy="47.8" r="0.7"/>
	<circle class="st0" cx="37.6" cy="51.5" r="0.7"/>
	<circle class="st0" cx="33.2" cy="51.5" r="0.7"/>
	<path class="st0" d="M55.5,64.8h-1.1c-1.9-2.1-1.9-5.2,0-7.3h1.1c0.4,0,0.7-0.3,0.7-0.7s-0.3-0.7-0.7-0.7H43.7
		c4-1.9,6.4-6.1,6.4-14.7c0-2.6-0.3-5-0.7-7.1c0.8-1.1,1.2-2.5,1.2-3.9c0-2.1-1-4.1-2.5-5.4c0.6-3.9-1.9-6-3.4-6.6
		c-0.2-0.1-0.4-0.1-0.6,0.1c-0.2,0.1-0.3,0.3-0.4,0.5c0,0-0.4,2.2-2.2,4.1c-1.7-0.8-3.7-1.2-6-1.2s-4.4,0.5-6.2,1.3
		c-2-1.8-2.4-4.2-2.4-4.2c0-0.2-0.2-0.4-0.4-0.5c-0.2-0.1-0.4-0.1-0.6-0.1c-1.5,0.6-4.1,2.7-3.4,6.6c-1.5,1.3-2.4,3.2-2.4,5.3
		c0,1.6,0.6,3.1,1.5,4.3c-0.4,2-0.6,4.3-0.6,6.7c0,8.6,2.4,12.8,6.4,14.7h-8.9c-2,0-3.7,1.6-3.7,3.7v2.9c0,2,1.6,3.6,3.7,3.6h37.2
		c0.4,0,0.7-0.3,0.7-0.7S55.9,64.8,55.5,64.8z M17.4,64.6c-0.8-0.3-1.3-1.1-1.3-2v-2.9c0-0.9,0.5-1.7,1.3-2
		C18.3,59.6,18.3,62.6,17.4,64.6z M44.8,20.1c0.8,0.6,2,1.7,1.9,3.9c-1-0.5-2.1-0.8-3.3-0.8c-0.1,0-0.2,0-0.3,0
		C44,22,44.6,20.9,44.8,20.1z M43.4,24.6c3.1,0,5.6,2.5,5.6,5.6s-2.5,5.6-5.6,5.6s-5.6-2.5-5.6-5.6C37.8,27.1,40.3,24.6,43.4,24.6z
		 M35.4,23.2c1.7,0,3.3,0.3,4.7,0.8c-2.3,1.2-3.8,3.5-3.8,6.3c0,1.4,0.4,2.6,1.1,3.7l-2,2.6l-2.3-2.7c0.7-1.1,1.1-2.3,1.1-3.7
		c0-2.7-1.5-5-3.6-6.2C32,23.5,33.6,23.2,35.4,23.2z M25.7,20.1c0.3,0.8,0.8,2,1.7,3.1c-0.1,0-0.2,0-0.3,0c-1.2,0-2.3,0.3-3.3,0.8
		C23.7,21.8,24.9,20.6,25.7,20.1z M21.5,30.2c0-3.1,2.5-5.6,5.6-5.6s5.6,2.5,5.6,5.6s-2.5,5.6-5.6,5.6S21.5,33.3,21.5,30.2z
		 M22.3,41.3c0-2,0.2-3.8,0.4-5.5c0.8,0.6,1.7,1.1,2.7,1.3c-0.3,1.5-0.4,3-0.4,4.5c0,4.5,1.2,8.9,3.4,11.9c0.1,0.2,0.4,0.3,0.6,0.3
		c0.1,0,0.3,0,0.4-0.1c0.3-0.2,0.4-0.7,0.2-1c-2-2.8-3.1-6.8-3.1-11c0-1.5,0.1-2.9,0.4-4.3c0.1,0,0.1,0,0.2,0c2,0,3.8-0.8,5.1-2.2
		l2.7,3.1c0.1,0.2,0.3,0.3,0.6,0.3l0,0c0.2,0,0.4-0.1,0.6-0.3l2.3-3.1c1.3,1.3,3.1,2.2,5.1,2.2c0.1,0,0.1,0,0.2,0
		c0.3,1.4,0.4,2.8,0.4,4.3c0,4.3-1.1,8.3-3.1,11c-0.2,0.3-0.2,0.8,0.2,1c0.1,0.1,0.3,0.1,0.4,0.1c0.2,0,0.5-0.1,0.6-0.3
		c2.2-3,3.4-7.3,3.4-11.9c0-1.5-0.1-3-0.4-4.5c1.2-0.3,2.2-0.8,3.1-1.6c0.3,1.8,0.5,3.7,0.5,5.8c0,13.6-6.2,14.7-13.1,14.7
		C28.5,56,22.3,54.9,22.3,41.3z M18.9,64.8c0.4-1.1,0.7-2.3,0.7-3.6h8.7c0.4,0,0.7-0.3,0.7-0.7s-0.3-0.7-0.7-0.7h-8.8
		c-0.1-0.8-0.3-1.6-0.6-2.2h33.7c-0.7,1.1-1.1,2.4-1.1,3.7H33.4c-0.4,0-0.7,0.3-0.7,0.7s0.3,0.7,0.7,0.7h18.3
		c0.2,0.8,0.5,1.5,0.9,2.2L18.9,64.8L18.9,64.8z"/>
</g>
</svg>
