<svg fill="#FF6B00" xmlns:dc="http://purl.org/dc/elements/1.1/" xmlns:cc="http://creativecommons.org/ns#" xmlns:rdf="http://www.w3.org/1999/02/22-rdf-syntax-ns#" xmlns:svg="http://www.w3.org/2000/svg" xmlns="http://www.w3.org/2000/svg" xmlns:sodipodi="http://sodipodi.sourceforge.net/DTD/sodipodi-0.dtd" xmlns:inkscape="http://www.inkscape.org/namespaces/inkscape" viewBox="0 0 26.458333 26.458334" version="1.1" x="0px" y="0px"><g transform="translate(0,-270.54165)"><path style="color:#000000;font-style:normal;font-variant:normal;font-weight:normal;font-stretch:normal;font-size:medium;line-height:normal;font-family:sans-serif;font-variant-ligatures:normal;font-variant-position:normal;font-variant-caps:normal;font-variant-numeric:normal;font-variant-alternates:normal;font-feature-settings:normal;text-indent:0;text-align:start;text-decoration:none;text-decoration-line:none;text-decoration-style:solid;text-decoration-color:#000000;letter-spacing:normal;word-spacing:normal;text-transform:none;writing-mode:lr-tb;direction:ltr;text-orientation:mixed;dominant-baseline:auto;baseline-shift:baseline;text-anchor:start;white-space:normal;shape-padding:0;clip-rule:nonzero;display:inline;overflow:visible;visibility:visible;opacity:1;isolation:auto;mix-blend-mode:normal;color-interpolation:sRGB;color-interpolation-filters:linearRGB;solid-color:#000000;solid-opacity:1;vector-effect:none;fill:#FF6B00;fill-opacity:1;fill-rule:nonzero;stroke:none;stroke-width:5.00031471;stroke-linecap:round;stroke-linejoin:miter;stroke-miterlimit:4;stroke-dasharray:none;stroke-dashoffset:0;stroke-opacity:1;color-rendering:auto;image-rendering:auto;shape-rendering:auto;text-rendering:auto;enable-background:accumulate" d="M 4.9980469 20.001953 L 4.9980469 22.498047 L 4.9980469 95.001953 L 70.001953 95.001953 L 70.001953 43.46875 C 68.172091 42.321816 66.50977 41.205733 64.998047 40.119141 L 64.998047 89.998047 L 10.001953 89.998047 L 10.001953 25 L 51.28125 25 C 50.513129 23.10759 50.199517 21.443558 50.080078 20.001953 L 4.9980469 20.001953 z " transform="matrix(0.26458333,0,0,0.26458333,0,270.54165)"></path><circle style="opacity:1;fill:#FF6B00;fill-opacity:1;stroke:none;stroke-width:1.32300007;stroke-linecap:round;stroke-linejoin:miter;stroke-miterlimit:4;stroke-dasharray:none;stroke-opacity:1" cx="5.291667" cy="291.70834" r="1.3229167"></circle><rect style="opacity:1;fill:#FF6B00;fill-opacity:1;stroke:none;stroke-width:1.32300007;stroke-linecap:round;stroke-linejoin:miter;stroke-miterlimit:4;stroke-dasharray:none;stroke-opacity:1" width="7.9375" height="2.6458333" x="7.9375" y="290.38541" rx="1.3229166" ry="1.3229166"></rect><circle style="opacity:1;fill:#FF6B00;fill-opacity:1;stroke:none;stroke-width:1.32300007;stroke-linecap:round;stroke-linejoin:miter;stroke-miterlimit:4;stroke-dasharray:none;stroke-opacity:1" cx="5.2916665" cy="287.73956" r="1.3229166"></circle><rect style="opacity:1;fill:#FF6B00;fill-opacity:1;stroke:none;stroke-width:1.32300007;stroke-linecap:round;stroke-linejoin:miter;stroke-miterlimit:4;stroke-dasharray:none;stroke-opacity:1" width="7.9375005" height="2.6458333" x="7.9374995" y="286.41663" rx="1.3229166" ry="1.3229166"></rect><circle style="opacity:1;fill:#FF6B00;fill-opacity:1;stroke:none;stroke-width:1.32300007;stroke-linecap:round;stroke-linejoin:miter;stroke-miterlimit:4;stroke-dasharray:none;stroke-opacity:1" cx="5.2916679" cy="283.77081" r="1.3229166"></circle><rect style="opacity:1;fill:#FF6B00;fill-opacity:1;stroke:none;stroke-width:1.32300007;stroke-linecap:round;stroke-linejoin:miter;stroke-miterlimit:4;stroke-dasharray:none;stroke-opacity:1" width="7.9375" height="2.6458333" x="7.937501" y="282.44788" rx="1.3229166" ry="1.3229166"></rect><circle style="opacity:1;fill:#FF6B00;fill-opacity:1;stroke:none;stroke-width:1.32300007;stroke-linecap:round;stroke-linejoin:miter;stroke-miterlimit:4;stroke-dasharray:none;stroke-opacity:1" cx="5.291667" cy="279.80203" r="1.3229166"></circle><path style="opacity:1;fill:#FF6B00;fill-opacity:1;stroke:none;stroke-width:5.00031519;stroke-linecap:round;stroke-linejoin:miter;stroke-miterlimit:4;stroke-dasharray:none;stroke-opacity:1" d="M 35 30 C 32.23 30 30 32.23 30 35 C 30 37.77 32.23 40 35 40 L 55 40 C 57.399383 40 59.38822 38.324183 59.878906 36.076172 C 57.406737 33.904307 55.549293 31.877527 54.154297 30 L 35 30 z " transform="matrix(0.26458333,0,0,0.26458333,0,270.54165)"></path><path style="" d="m 17.20242,271.86457 c -1.458303,0 -2.641347,1.16607 -2.641347,2.60449 -0.01,1.04776 -0.399993,3.33963 5.282692,6.65593 5.682684,-3.3163 5.292645,-5.60817 5.282691,-6.65593 0,-1.43842 -1.183043,-2.60449 -2.641346,-2.60449 -1.458303,0 -2.641345,1.16607 -2.641345,2.60449 0,-1.43842 -1.183043,-2.60449 -2.641345,-2.60449 z" fill="#FF6B00" fill-opacity="1" stroke="none"></path></g></svg>